<svg viewBox="0 0 46 33" fill="none" xmlns="http://www.w3.org/2000/svg">
    <path
        d="M31.5442 28.1471C39.3169 28.1471 45.6178 21.8461 45.6178 14.0735C45.6178 6.30094 39.3169 0 31.5442 0C23.7716 0 17.4707 6.30094 17.4707 14.0735C17.4707 21.8461 23.7716 28.1471 31.5442 28.1471Z"
        fill="#EF6C47" />
    <path
        d="M8.73529 33C13.5597 33 17.4706 29.0891 17.4706 24.2647C17.4706 19.4403 13.5597 15.5294 8.73529 15.5294C3.91092 15.5294 0 19.4403 0 24.2647C0 29.0891 3.91092 33 8.73529 33Z"
        fill="#D9D9D9" />
    <path
        d="M17.4706 21.5956C22.295 21.5956 26.2059 17.6847 26.2059 12.8603C26.2059 8.03592 22.295 4.125 17.4706 4.125C12.6463 4.125 8.73535 8.03592 8.73535 12.8603C8.73535 17.6847 12.6463 21.5956 17.4706 21.5956Z"
        fill="#D9D9D9" />
    <path
        d="M29.1177 22.3235C32.4679 22.3235 35.1839 19.6076 35.1839 16.2573C35.1839 12.9071 32.4679 10.1912 29.1177 10.1912C25.7674 10.1912 23.0515 12.9071 23.0515 16.2573C23.0515 19.6076 25.7674 22.3235 29.1177 22.3235Z"
        fill="#D9D9D9" />
    <path
        d="M36.1544 33C40.1747 33 43.4338 29.7409 43.4338 25.7206C43.4338 21.7003 40.1747 18.4412 36.1544 18.4412C32.1341 18.4412 28.875 21.7003 28.875 25.7206C28.875 29.7409 32.1341 33 36.1544 33Z"
        fill="#D9D9D9" />
    <path d="M36.3971 18.9265H8.73535V33H36.3971V18.9265Z" fill="#D9D9D9" />
</svg>