<svg xmlns="http://www.w3.org/2000/svg" viewBox="0 0 30 22" fill="none">
    <path
        d="M6.03352 21.1089C9.36574 21.1089 12.067 18.3706 12.067 14.9926C12.067 11.6147 9.36574 8.87628 6.03352 8.87628C2.7013 8.87628 0 11.6147 0 14.9926C0 18.3706 2.7013 21.1089 6.03352 21.1089Z"
        fill="#D9D9D9" />
    <path
        d="M12.067 13.1237C15.3992 13.1237 18.1005 10.3853 18.1005 7.00739C18.1005 3.62943 15.3992 0.891052 12.067 0.891052C8.73475 0.891052 6.03345 3.62943 6.03345 7.00739C6.03345 10.3853 8.73475 13.1237 12.067 13.1237Z"
        fill="#D9D9D9" />
    <path
        d="M20.1118 13.6334C22.4259 13.6334 24.3018 11.7317 24.3018 9.38594C24.3018 7.04014 22.4259 5.13849 20.1118 5.13849C17.7978 5.13849 15.9219 7.04014 15.9219 9.38594C15.9219 11.7317 17.7978 13.6334 20.1118 13.6334Z"
        fill="#D9D9D9" />
    <path
        d="M24.972 21.1089C27.7489 21.1089 30 18.8269 30 16.012C30 13.197 27.7489 10.915 24.972 10.915C22.1952 10.915 19.9441 13.197 19.9441 16.012C19.9441 18.8269 22.1952 21.1089 24.972 21.1089Z"
        fill="#D9D9D9" />
    <path d="M25.1396 11.2548H6.03345V21.1089H25.1396V11.2548Z" fill="#D9D9D9" />
</svg>