<svg viewBox="0 0 53 45" fill="none" xmlns="http://www.w3.org/2000/svg">
    <path
        d="M18.617 28.875C23.3761 28.875 27.234 24.9641 27.234 20.1397C27.234 15.3153 23.3761 11.4044 18.617 11.4044C13.858 11.4044 10 15.3153 10 20.1397C10 24.9641 13.858 28.875 18.617 28.875Z"
        fill="#48484A" />
    <path
        d="M27.234 17.4706C31.993 17.4706 35.851 13.5597 35.851 8.73529C35.851 3.91092 31.993 0 27.234 0C22.4749 0 18.6169 3.91092 18.6169 8.73529C18.6169 13.5597 22.4749 17.4706 27.234 17.4706Z"
        fill="#48484A" />
    <path
        d="M38.7233 18.1985C42.0282 18.1985 44.7073 15.4826 44.7073 12.1323C44.7073 8.78208 42.0282 6.06616 38.7233 6.06616C35.4184 6.06616 32.7393 8.78208 32.7393 12.1323C32.7393 15.4826 35.4184 18.1985 38.7233 18.1985Z"
        fill="#48484A" />
    <path
        d="M45.665 28.875C49.6309 28.875 52.8458 25.6159 52.8458 21.5956C52.8458 17.5753 49.6309 14.3162 45.665 14.3162C41.6991 14.3162 38.4841 17.5753 38.4841 21.5956C38.4841 25.6159 41.6991 28.875 45.665 28.875Z"
        fill="#48484A" />
    <path d="M45.9042 14.8015H18.6169V28.875H45.9042V14.8015Z" fill="#48484A" />
    <path
        d="M8.61702 33.875C13.3761 33.875 17.234 29.9641 17.234 25.1397C17.234 20.3153 13.3761 16.4044 8.61702 16.4044C3.85797 16.4044 0 20.3153 0 25.1397C0 29.9641 3.85797 33.875 8.61702 33.875Z"
        fill="#D9D9D9" />
    <path
        d="M17.234 22.4706C21.993 22.4706 25.851 18.5597 25.851 13.7353C25.851 8.91092 21.993 5 17.234 5C12.4749 5 8.61694 8.91092 8.61694 13.7353C8.61694 18.5597 12.4749 22.4706 17.234 22.4706Z"
        fill="#D9D9D9" />
    <path
        d="M28.7233 23.1985C32.0282 23.1985 34.7073 20.4826 34.7073 17.1323C34.7073 13.7821 32.0282 11.0662 28.7233 11.0662C25.4184 11.0662 22.7393 13.7821 22.7393 17.1323C22.7393 20.4826 25.4184 23.1985 28.7233 23.1985Z"
        fill="#D9D9D9" />
    <path
        d="M35.665 33.875C39.6309 33.875 42.8458 30.6159 42.8458 26.5956C42.8458 22.5753 39.6309 19.3162 35.665 19.3162C31.6991 19.3162 28.4841 22.5753 28.4841 26.5956C28.4841 30.6159 31.6991 33.875 35.665 33.875Z"
        fill="#D9D9D9" />
    <path d="M35.9042 19.8015H8.61694V33.875H35.9042V19.8015Z" fill="#D9D9D9" />
    <path
        d="M15.0421 33.2751C15.4529 32.6431 15.1342 31.9951 14.3303 31.8276C13.5264 31.6602 12.5418 32.0367 12.131 32.6686L10.6436 34.957C10.2328 35.589 10.5515 36.237 11.3554 36.4045C12.1593 36.5719 13.1439 36.1954 13.5547 35.5635L15.0421 33.2751Z"
        fill="#48484A" />
    <path
        d="M21.2357 34.5674C21.6465 33.9355 21.3278 33.2875 20.5239 33.12C19.72 32.9525 18.7354 33.3291 18.3246 33.961L16.8372 36.2494C16.4264 36.8813 16.7451 37.5294 17.549 37.6968C18.3529 37.8643 19.3375 37.4878 19.7483 36.8558L21.2357 34.5674Z"
        fill="#48484A" />
    <path
        d="M27.4274 35.0671C27.8381 34.4351 27.5194 33.7871 26.7156 33.6196C25.9117 33.4522 24.927 33.8287 24.5163 34.4606L23.0288 36.749C22.6181 37.381 22.9368 38.029 23.7406 38.1965C24.5445 38.3639 25.5292 37.9874 25.9399 37.3555L27.4274 35.0671Z"
        fill="#48484A" />
    <path
        d="M15.3495 38.4582C15.7603 37.8263 15.4416 37.1782 14.6377 37.0107C13.8338 36.8433 12.8491 37.2198 12.4384 37.8517L10.9509 40.1401C10.5402 40.7721 10.8589 41.4201 11.6628 41.5876C12.4666 41.755 13.4513 41.3785 13.862 40.7466L15.3495 38.4582Z"
        fill="#48484A" />
    <path
        d="M21.5414 41.1504C21.9522 40.5185 21.6335 39.8705 20.8296 39.703C20.0257 39.5355 19.041 39.9121 18.6303 40.544L17.1428 42.8324C16.7321 43.4643 17.0508 44.1124 17.8547 44.2798C18.6585 44.4473 19.6432 44.0708 20.0539 43.4389L21.5414 41.1504Z"
        fill="#48484A" />
    <path
        d="M27.7345 41.6504C28.1453 41.0185 27.8266 40.3705 27.0227 40.203C26.2188 40.0355 25.2342 40.4121 24.8234 41.044L23.3359 43.3324C22.9252 43.9643 23.2439 44.6124 24.0478 44.7798C24.8516 44.9473 25.8363 44.5708 26.2471 43.9389L27.7345 41.6504Z"
        fill="#48484A" />
</svg>