<svg viewBox="0 0 45 45" fill="none" xmlns="http://www.w3.org/2000/svg">
	<path 
		d="M31.1171 28.1471C38.7846 28.1471 45.0001 21.8461 45.0001 14.0735C45.0001 6.30094 38.7846 0 31.1171 0C23.4498 0 17.2341 6.30094 17.2341 14.0735C17.2341 21.8461 23.4498 28.1471 31.1171 28.1471Z"
		fill="#EF6C47"/>
	<path 
		d="M8.61702 33C13.3761 33 17.234 29.0891 17.234 24.2647C17.234 19.4403 13.3761 15.5294 8.61702 15.5294C3.85797 15.5294 0 19.4403 0 24.2647C0 29.0891 3.85797 33 8.61702 33Z"
		fill="#D9D9D9"/>
	<path 
		d="M17.234 21.5956C21.993 21.5956 25.851 17.6847 25.851 12.8603C25.851 8.03592 21.993 4.125 17.234 4.125C12.4749 4.125 8.61694 8.03592 8.61694 12.8603C8.61694 17.6847 12.4749 21.5956 17.234 21.5956Z"
		fill="#D9D9D9"/>
	<path 
		d="M28.7233 22.3235C32.0282 22.3235 34.7073 19.6076 34.7073 16.2573C34.7073 12.9071 32.0282 10.1912 28.7233 10.1912C25.4184 10.1912 22.7393 12.9071 22.7393 16.2573C22.7393 19.6076 25.4184 22.3235 28.7233 22.3235Z"
		fill="#D9D9D9"/>
	<path 	
		d="M35.665 33C39.6309 33 42.8458 29.7409 42.8458 25.7206C42.8458 21.7003 39.6309 18.4412 35.665 18.4412C31.6991 18.4412 28.4841 21.7003 28.4841 25.7206C28.4841 29.7409 31.6991 33 35.665 33Z"
		fill="#D9D9D9"/>
	<path 
		d="M35.9042 18.9265H8.61694V33H35.9042V18.9265Z" fill="#D9D9D9"/>
	<path 
		d="M14.3143 31.8774C14.7251 31.2454 14.4064 30.5974 13.6025 30.4299C12.7986 30.2625 11.814 30.639 11.4032 31.2709L9.91578 33.5593C9.50503 34.1913 9.82372 34.8393 10.6276 35.0068C11.4315 35.1742 12.4161 34.7977 12.8269 34.1658L14.3143 31.8774Z"
		fill="#48484A"/>
	<path 
		d="M20.508 33.1697C20.9187 32.5378 20.6 31.8898 19.7961 31.7223C18.9922 31.5548 18.0076 31.9313 17.5968 32.5633L16.1094 34.8517C15.6986 35.4836 16.0173 36.1316 16.8212 36.2991C17.6251 36.4666 18.6097 36.0901 19.0205 35.4581L20.508 33.1697Z"
		fill="#48484A"/>
	<path 
		d="M26.6996 33.6694C27.1104 33.0374 26.7917 32.3894 25.9878 32.2219C25.1839 32.0545 24.1992 32.431 23.7885 33.0629L22.301 35.3513C21.8903 35.9832 22.209 36.6313 23.0129 36.7988C23.8167 36.9662 24.8014 36.5897 25.2121 35.9578L26.6996 33.6694Z"
		fill="#48484A"/>
	<path 
		d="M14.6217 37.0605C15.0325 36.4285 14.7138 35.7805 13.9099 35.613C13.106 35.4456 12.1214 35.8221 11.7106 36.454L10.2232 38.7424C9.8124 39.3744 10.1311 40.0224 10.935 40.1899C11.7389 40.3573 12.7235 39.9808 13.1343 39.3489L14.6217 37.0605Z"
		fill="#48484A"/>
	<path 
		d="M20.8136 39.7527C21.2244 39.1208 20.9057 38.4728 20.1018 38.3053C19.2979 38.1378 18.3133 38.5144 17.9025 39.1463L16.415 41.4347C16.0043 42.0666 16.323 42.7147 17.1269 42.8821C17.9308 43.0496 18.9154 42.6731 19.3262 42.0411L20.8136 39.7527Z"
		fill="#48484A"/>
	<path 
		d="M27.0067 40.2527C27.4175 39.6208 27.0988 38.9728 26.2949 38.8053C25.491 38.6378 24.5064 39.0144 24.0956 39.6463L22.6082 41.9347C22.1974 42.5666 22.5161 43.2147 23.32 43.3821C24.1239 43.5496 25.1085 43.1731 25.5193 42.5411L27.0067 40.2527Z"
		fill="#48484A"/>
</svg>


