<svg viewBox="0 0 53 46" fill="none" xmlns="http://www.w3.org/2000/svg">
    <path
        d="M18.617 28.875C23.3761 28.875 27.234 24.9641 27.234 20.1397C27.234 15.3153 23.3761 11.4044 18.617 11.4044C13.858 11.4044 10 15.3153 10 20.1397C10 24.9641 13.858 28.875 18.617 28.875Z"
        fill="#48484A" />
    <path
        d="M27.234 17.4706C31.993 17.4706 35.851 13.5597 35.851 8.73529C35.851 3.91092 31.993 0 27.234 0C22.4749 0 18.6169 3.91092 18.6169 8.73529C18.6169 13.5597 22.4749 17.4706 27.234 17.4706Z"
        fill="#48484A" />
    <path
        d="M38.7233 18.1985C42.0282 18.1985 44.7073 15.4826 44.7073 12.1323C44.7073 8.78208 42.0282 6.06616 38.7233 6.06616C35.4184 6.06616 32.7393 8.78208 32.7393 12.1323C32.7393 15.4826 35.4184 18.1985 38.7233 18.1985Z"
        fill="#48484A" />
    <path
        d="M45.665 28.875C49.6309 28.875 52.8458 25.6159 52.8458 21.5956C52.8458 17.5753 49.6309 14.3162 45.665 14.3162C41.6991 14.3162 38.4841 17.5753 38.4841 21.5956C38.4841 25.6159 41.6991 28.875 45.665 28.875Z"
        fill="#48484A" />
    <path d="M45.9042 14.8015H18.6169V28.875H45.9042V14.8015Z" fill="#48484A" />
    <path
        d="M8.61702 33.875C13.3761 33.875 17.234 29.9641 17.234 25.1397C17.234 20.3153 13.3761 16.4044 8.61702 16.4044C3.85797 16.4044 0 20.3153 0 25.1397C0 29.9641 3.85797 33.875 8.61702 33.875Z"
        fill="#D9D9D9" />
    <path
        d="M17.234 22.4706C21.993 22.4706 25.851 18.5597 25.851 13.7353C25.851 8.91092 21.993 5 17.234 5C12.4749 5 8.61694 8.91092 8.61694 13.7353C8.61694 18.5597 12.4749 22.4706 17.234 22.4706Z"
        fill="#D9D9D9" />
    <path
        d="M28.7233 23.1985C32.0282 23.1985 34.7073 20.4826 34.7073 17.1323C34.7073 13.7821 32.0282 11.0662 28.7233 11.0662C25.4184 11.0662 22.7393 13.7821 22.7393 17.1323C22.7393 20.4826 25.4184 23.1985 28.7233 23.1985Z"
        fill="#D9D9D9" />
    <path
        d="M35.665 33.875C39.6309 33.875 42.8458 30.6159 42.8458 26.5956C42.8458 22.5753 39.6309 19.3162 35.665 19.3162C31.6991 19.3162 28.4841 22.5753 28.4841 26.5956C28.4841 30.6159 31.6991 33.875 35.665 33.875Z"
        fill="#D9D9D9" />
    <path d="M35.9042 19.8015H8.61694V33.875H35.9042V19.8015Z" fill="#D9D9D9" />
    <path
        d="M10 45.8488V44.9353L13.6456 36.5647L10.3036 36.4135L10 36.109V35.3488L15.0136 25.4557L15.772 25L21.544 25.3045V25.9135L17.8984 31.5436L21.3928 31.8481L22 32.6083L10.7596 46L10 45.8488Z"
        fill="#F36E41" />
</svg>