<svg viewBox="0 0 20 20" fill="none" xmlns="http://www.w3.org/2000/svg">
    <path
        d="M10.526 20H9.736L8.948 19.278V17.35L7.106 18.796H6.578L5.79 17.832L6.054 17.108L8.948 14.458V13.012L7.632 12.288L6.314 13.012L5.262 16.868L3.946 17.35L3.158 16.628L3.684 14.458L1.842 15.422L0.526 14.94V13.976L2.632 12.772L0.788 12.288L0 11.566L0.788 10.362L5 11.326L6.58 10.602V9.156L5.262 8.432L2.104 9.396L0.264 9.156L0 8.434L0.526 7.712L2.632 7.228L0.526 5.782V5.06L1.578 4.338L3.684 5.542L3.158 3.372L3.684 2.65H4.736L5.526 3.614L6.314 6.746L8.158 7.47L8.948 6.988V5.3L6.054 2.65L5.79 1.928L6.578 1.204H7.368L8.948 2.65V0.722L9.474 0H10.526L11.052 0.482V2.65L12.894 1.204L14.21 1.686V2.65L11.052 5.542L11.316 6.988L12.106 7.47L13.684 6.988L15.002 2.892L16.316 2.65L16.842 3.132L16.58 5.302L18.684 4.338L19.736 5.06V5.782L17.632 7.228L20 7.952L19.738 9.396H18.158L15 8.432L13.42 9.398V10.602L14.738 11.326L19.474 10.362L20 10.844V11.808L17.632 12.772L19.21 13.736L19.736 14.7L18.422 15.422L16.58 14.458L16.842 16.868L15.526 17.35L14.738 16.386L13.948 13.254L12.632 12.288L11.316 12.77L11.052 14.458L14.21 17.35V18.314L13.158 18.796L11.052 17.108V19.518L10.526 20Z"
        fill="#3C3C3C" />
</svg>